<svg width="597" height="537" viewBox="0 0 597 537" fill="none" xmlns="http://www.w3.org/2000/svg">
<path d="M280.418 79.1123L322.715 10.599H407.311L449.608 79.1123L407.311 147.626H322.715L280.418 79.1123Z" fill="#F5941C"/>
<path d="M0 238.12L41.906 168.928H125.718L167.624 238.12L125.718 307.312H41.906L0 238.12Z" fill="#F36E1E"/>
<path d="M429.243 159.791L471.149 90.5995H554.961L596.867 159.791L554.961 228.983H471.149L429.243 159.791Z" fill="#FDB811"/>
<path d="M280.418 238.12L322.715 168.928H407.311L449.608 238.12L407.311 307.312H322.715L280.418 238.12Z" fill="black"/>
<path d="M142.559 318.799L184.073 250.286H267.102L308.616 318.799L267.102 387.312H184.073L142.559 318.799Z" fill="#F5941C"/>
<path d="M186.112 427.992C189.355 427.992 192.149 428.717 194.496 430.168C196.885 431.619 198.741 433.56 200.064 435.992L194.176 440.536C192 437.293 189.312 435.672 186.112 435.672C184.619 435.672 183.36 436.035 182.336 436.76C181.355 437.443 180.864 438.445 180.864 439.768C180.864 440.877 181.227 441.773 181.952 442.456C182.72 443.096 184 443.821 185.792 444.632L190.592 446.744C194.133 448.323 196.757 450.072 198.464 451.992C200.171 453.869 201.024 456.237 201.024 459.096C201.024 462.936 199.637 466.008 196.864 468.312C194.091 470.616 190.549 471.768 186.24 471.768C182.656 471.768 179.435 470.936 176.576 469.272C173.76 467.565 171.541 465.283 169.92 462.424L175.872 457.944C178.816 462.04 182.272 464.088 186.24 464.088C188.117 464.088 189.589 463.683 190.656 462.872C191.723 462.019 192.256 460.867 192.256 459.416C192.256 458.563 192 457.816 191.488 457.176C191.019 456.493 190.464 455.981 189.824 455.64C189.227 455.299 188.245 454.808 186.88 454.168L182.336 452.12C179.051 450.627 176.512 448.92 174.72 447C172.971 445.08 172.096 442.733 172.096 439.96C172.096 436.376 173.419 433.496 176.064 431.32C178.709 429.101 182.059 427.992 186.112 427.992ZM229.67 439.32H238.758L223.59 473.752C222.139 477.037 220.411 479.448 218.406 480.984C216.401 482.52 213.926 483.288 210.982 483.288C209.19 483.288 207.334 483.032 205.414 482.52V475.288C207.377 475.459 208.614 475.544 209.126 475.544C210.662 475.544 211.963 475.245 213.03 474.648C214.097 474.051 214.993 472.92 215.718 471.256L216.678 469.144L204.518 439.32H213.67L221.414 460.12L229.67 439.32ZM261.004 438.616C264.673 438.616 267.575 439.789 269.708 442.136C271.841 444.44 272.908 447.512 272.908 451.352V471H264.332V452.504C264.332 450.669 263.777 449.197 262.668 448.088C261.601 446.936 260.193 446.36 258.444 446.36C256.695 446.36 255.244 446.936 254.092 448.088C252.983 449.197 252.428 450.669 252.428 452.504V471H243.788V439.32H251.724V442.2C254.113 439.811 257.207 438.616 261.004 438.616ZM297.482 464.024C297.994 464.024 299.359 463.939 301.578 463.768V471C299.53 471.512 297.546 471.768 295.626 471.768C291.615 471.768 288.5 470.787 286.282 468.824C284.063 466.819 282.954 463.832 282.954 459.864V446.616H277.962V439.32H282.954V431.32H291.594V439.32H300.554V446.616H291.594V459.096C291.594 460.888 292.063 462.168 293.002 462.936C293.94 463.661 295.434 464.024 297.482 464.024ZM320.843 438.616C324.981 438.616 328.267 439.789 330.699 442.136C333.173 444.44 334.411 447.789 334.411 452.184V471H326.475V467.928C324.043 470.488 320.821 471.768 316.811 471.768C313.44 471.768 310.773 470.893 308.811 469.144C306.848 467.352 305.867 465.069 305.867 462.296C305.867 459.437 306.933 457.197 309.067 455.576C311.243 453.912 314.165 453.08 317.835 453.08H325.771V451.672C325.771 449.923 325.259 448.557 324.235 447.576C323.253 446.595 321.803 446.104 319.883 446.104C317.067 446.104 314.272 447.555 311.499 450.456L307.019 445.144C310.688 440.792 315.296 438.616 320.843 438.616ZM319.115 465.432C320.992 465.432 322.571 464.856 323.851 463.704C325.131 462.509 325.771 460.995 325.771 459.16V458.776H318.987C316.043 458.776 314.571 459.843 314.571 461.976C314.571 463.043 314.976 463.896 315.787 464.536C316.64 465.133 317.749 465.432 319.115 465.432ZM371.91 471H362.246L355.398 460.888L348.614 471H338.95L350.598 454.616L339.718 439.32H349.382L355.398 448.408L361.478 439.32H371.142L360.198 454.616L371.91 471ZM423.655 428.76V436.568H403.879V445.144H418.407V452.504H403.879V463.192H424.423V471H395.239V428.76H423.655ZM447.991 438.936C449.057 438.936 449.996 439.064 450.807 439.32V446.936H448.503C445.9 446.936 443.831 447.64 442.295 449.048C440.759 450.413 439.991 452.461 439.991 455.192V471H431.351V439.32H439.287V443.16C441.463 440.344 444.364 438.936 447.991 438.936ZM472.803 438.936C473.87 438.936 474.808 439.064 475.619 439.32V446.936H473.315C470.712 446.936 468.643 447.64 467.107 449.048C465.571 450.413 464.803 452.461 464.803 455.192V471H456.163V439.32H464.099V443.16C466.275 440.344 469.176 438.936 472.803 438.936ZM495.519 438.616C500.212 438.616 504.223 440.216 507.551 443.416C510.879 446.573 512.543 450.477 512.543 455.128C512.543 459.779 510.879 463.704 507.551 466.904C504.223 470.104 500.191 471.704 495.455 471.704C490.719 471.704 486.708 470.125 483.423 466.968C480.18 463.768 478.559 459.821 478.559 455.128C478.559 450.477 480.201 446.573 483.487 443.416C486.772 440.216 490.783 438.616 495.519 438.616ZM495.519 446.488C493.129 446.488 491.167 447.32 489.631 448.984C488.095 450.605 487.327 452.675 487.327 455.192C487.327 457.709 488.095 459.779 489.631 461.4C491.167 462.979 493.129 463.768 495.519 463.768C497.865 463.768 499.807 462.957 501.343 461.336C502.921 459.715 503.711 457.667 503.711 455.192C503.711 452.717 502.921 450.648 501.343 448.984C499.807 447.32 497.865 446.488 495.519 446.488ZM535.928 438.936C536.995 438.936 537.933 439.064 538.744 439.32V446.936H536.44C533.837 446.936 531.768 447.64 530.232 449.048C528.696 450.413 527.928 452.461 527.928 455.192V471H519.288V439.32H527.224V443.16C529.4 440.344 532.301 438.936 535.928 438.936Z" fill="#FBB814"/>
</svg>
