<svg width="383" height="338" viewBox="0 0 383 338" fill="none" xmlns="http://www.w3.org/2000/svg">
<path d="M179 50.5L206 6.76572H260L287 50.5L260 94.2343H206L179 50.5Z" fill="#F5941C"/>
<path d="M0 152L26.75 107.833H80.25L107 152L80.25 196.167H26.75L0 152Z" fill="#F36E1E"/>
<path d="M274 102L300.75 57.8327H354.25L381 102L354.25 146.167H300.75L274 102Z" fill="#FDB811"/>
<path d="M179 152L206 107.833H260L287 152L260 196.167H206L179 152Z" fill="black"/>
<path d="M91 203.5L117.5 159.766H170.5L197 203.5L170.5 247.234H117.5L91 203.5Z" fill="#F5941C"/>
<path d="M29.112 273.992C32.3547 273.992 35.1493 274.717 37.496 276.168C39.8853 277.619 41.7413 279.56 43.064 281.992L37.176 286.536C35 283.293 32.312 281.672 29.112 281.672C27.6187 281.672 26.36 282.035 25.336 282.76C24.3547 283.443 23.864 284.445 23.864 285.768C23.864 286.877 24.2267 287.773 24.952 288.456C25.72 289.096 27 289.821 28.792 290.632L33.592 292.744C37.1333 294.323 39.7573 296.072 41.464 297.992C43.1707 299.869 44.024 302.237 44.024 305.096C44.024 308.936 42.6373 312.008 39.864 314.312C37.0907 316.616 33.5493 317.768 29.24 317.768C25.656 317.768 22.4347 316.936 19.576 315.272C16.76 313.565 14.5413 311.283 12.92 308.424L18.872 303.944C21.816 308.04 25.272 310.088 29.24 310.088C31.1173 310.088 32.5893 309.683 33.656 308.872C34.7227 308.019 35.256 306.867 35.256 305.416C35.256 304.563 35 303.816 34.488 303.176C34.0187 302.493 33.464 301.981 32.824 301.64C32.2267 301.299 31.2453 300.808 29.88 300.168L25.336 298.12C22.0507 296.627 19.512 294.92 17.72 293C15.9707 291.08 15.096 288.733 15.096 285.96C15.096 282.376 16.4187 279.496 19.064 277.32C21.7093 275.101 25.0587 273.992 29.112 273.992ZM72.67 285.32H81.758L66.59 319.752C65.1393 323.037 63.4113 325.448 61.406 326.984C59.4007 328.52 56.926 329.288 53.982 329.288C52.19 329.288 50.334 329.032 48.414 328.52V321.288C50.3767 321.459 51.614 321.544 52.126 321.544C53.662 321.544 54.9633 321.245 56.03 320.648C57.0967 320.051 57.9927 318.92 58.718 317.256L59.678 315.144L47.518 285.32H56.67L64.414 306.12L72.67 285.32ZM104.004 284.616C107.673 284.616 110.575 285.789 112.708 288.136C114.841 290.44 115.908 293.512 115.908 297.352V317H107.332V298.504C107.332 296.669 106.777 295.197 105.668 294.088C104.601 292.936 103.193 292.36 101.444 292.36C99.6947 292.36 98.244 292.936 97.092 294.088C95.9827 295.197 95.428 296.669 95.428 298.504V317H86.788V285.32H94.724V288.2C97.1133 285.811 100.207 284.616 104.004 284.616ZM140.482 310.024C140.994 310.024 142.359 309.939 144.578 309.768V317C142.53 317.512 140.546 317.768 138.626 317.768C134.615 317.768 131.5 316.787 129.282 314.824C127.063 312.819 125.954 309.832 125.954 305.864V292.616H120.962V285.32H125.954V277.32H134.594V285.32H143.554V292.616H134.594V305.096C134.594 306.888 135.063 308.168 136.002 308.936C136.94 309.661 138.434 310.024 140.482 310.024ZM163.843 284.616C167.981 284.616 171.267 285.789 173.699 288.136C176.173 290.44 177.411 293.789 177.411 298.184V317H169.475V313.928C167.043 316.488 163.821 317.768 159.811 317.768C156.44 317.768 153.773 316.893 151.811 315.144C149.848 313.352 148.867 311.069 148.867 308.296C148.867 305.437 149.933 303.197 152.067 301.576C154.243 299.912 157.165 299.08 160.835 299.08H168.771V297.672C168.771 295.923 168.259 294.557 167.235 293.576C166.253 292.595 164.803 292.104 162.883 292.104C160.067 292.104 157.272 293.555 154.499 296.456L150.019 291.144C153.688 286.792 158.296 284.616 163.843 284.616ZM162.115 311.432C163.992 311.432 165.571 310.856 166.851 309.704C168.131 308.509 168.771 306.995 168.771 305.16V304.776H161.987C159.043 304.776 157.571 305.843 157.571 307.976C157.571 309.043 157.976 309.896 158.787 310.536C159.64 311.133 160.749 311.432 162.115 311.432ZM214.91 317H205.246L198.398 306.888L191.614 317H181.95L193.598 300.616L182.718 285.32H192.382L198.398 294.408L204.478 285.32H214.142L203.198 300.616L214.91 317ZM266.655 274.76V282.568H246.879V291.144H261.407V298.504H246.879V309.192H267.423V317H238.239V274.76H266.655ZM290.991 284.936C292.057 284.936 292.996 285.064 293.807 285.32V292.936H291.503C288.9 292.936 286.831 293.64 285.295 295.048C283.759 296.413 282.991 298.461 282.991 301.192V317H274.351V285.32H282.287V289.16C284.463 286.344 287.364 284.936 290.991 284.936ZM315.803 284.936C316.87 284.936 317.808 285.064 318.619 285.32V292.936H316.315C313.712 292.936 311.643 293.64 310.107 295.048C308.571 296.413 307.803 298.461 307.803 301.192V317H299.163V285.32H307.099V289.16C309.275 286.344 312.176 284.936 315.803 284.936ZM338.519 284.616C343.212 284.616 347.223 286.216 350.551 289.416C353.879 292.573 355.543 296.477 355.543 301.128C355.543 305.779 353.879 309.704 350.551 312.904C347.223 316.104 343.191 317.704 338.455 317.704C333.719 317.704 329.708 316.125 326.423 312.968C323.18 309.768 321.559 305.821 321.559 301.128C321.559 296.477 323.201 292.573 326.487 289.416C329.772 286.216 333.783 284.616 338.519 284.616ZM338.519 292.488C336.129 292.488 334.167 293.32 332.631 294.984C331.095 296.605 330.327 298.675 330.327 301.192C330.327 303.709 331.095 305.779 332.631 307.4C334.167 308.979 336.129 309.768 338.519 309.768C340.865 309.768 342.807 308.957 344.343 307.336C345.921 305.715 346.711 303.667 346.711 301.192C346.711 298.717 345.921 296.648 344.343 294.984C342.807 293.32 340.865 292.488 338.519 292.488ZM378.928 284.936C379.995 284.936 380.933 285.064 381.744 285.32V292.936H379.44C376.837 292.936 374.768 293.64 373.232 295.048C371.696 296.413 370.928 298.461 370.928 301.192V317H362.288V285.32H370.224V289.16C372.4 286.344 375.301 284.936 378.928 284.936Z" fill="#FBB814"/>
</svg>
